<?xml version="1.0" encoding="utf-8"?>
<!-- Generator: Adobe Illustrator 24.0.2, SVG Export Plug-In . SVG Version: 6.00 Build 0)  -->
<svg version="1.1" id="background" xmlns="http://www.w3.org/2000/svg" xmlns:xlink="http://www.w3.org/1999/xlink" x="0px" y="0px"
	 viewBox="0 0 180 180" style="enable-background:new 0 0 180 180;" xml:space="preserve">
<path d="M87.2,10.9L21.5,67.8c-2.9,2.5-1.1,7.2,2.7,7.2h131.4c3.8,0,5.5-4.7,2.7-7.2L92.6,10.9C91.1,9.6,88.8,9.6,87.2,10.9z"/>
<g>
	<path d="M124.8,51.1h-8.7c-1.4,0-2.5-1.1-2.5-2.5V19.7c0-1.4,1.1-2.5,2.5-2.5h8.7c1.4,0,2.5,1.1,2.5,2.5v28.9
		C127.3,50,126.2,51.1,124.8,51.1z"/>
</g>
<g>
	<path d="M101.5,107.1H78.5c-1.9,0-3.5,1.6-3.5,3.5v36.1h29.9v-36.1C104.9,108.6,103.4,107.1,101.5,107.1z"/>
</g>
<path d="M33.1,78.2v63.4c0,2.7,2.2,5,5,5H72v-38.7c0-2.1,1.7-3.9,3.9-3.9h28.2c2.1,0,3.9,1.7,3.9,3.9v38.7h33.9c2.7,0,5-2.2,5-5
	V78.2H33.1z"/>
</svg>
