<?xml version="1.0" encoding="utf-8"?>
<!-- Generator: Adobe Illustrator 24.0.2, SVG Export Plug-In . SVG Version: 6.00 Build 0)  -->
<svg version="1.1" id="background" xmlns="http://www.w3.org/2000/svg" xmlns:xlink="http://www.w3.org/1999/xlink" x="0px" y="0px"
	 viewBox="0 0 180 180" style="enable-background:new 0 0 180 180;" xml:space="preserve">
<style type="text/css">
	.st0{fill:none;stroke:#FFFFFF;stroke-width:10;stroke-miterlimit:10;}
</style>
<path class="st0" d="M97.7,13.7l9.9,15.9c0.3,0.5,0.8,0.9,1.3,1.1l9.6,4c0.6,0.2,1.2,0.3,1.8,0.1l16.8-4.6c1-0.3,2,0,2.7,0.7
	l8.5,8.5c0.7,0.7,1,1.7,0.8,2.6l-4,17.7c-0.1,0.6-0.1,1.2,0.1,1.7l4,9.6c0.2,0.6,0.6,1,1.1,1.3l15.1,9.1c0.8,0.5,1.4,1.4,1.4,2.4
	v12.1c0,1-0.5,1.9-1.4,2.4l-15.1,9.1c-0.5,0.3-0.9,0.8-1.1,1.3l-4,9.6c-0.2,0.5-0.3,1.1-0.1,1.7l4,17.7c0.2,0.9-0.1,1.9-0.8,2.6
	l-8.5,8.5c-0.7,0.7-1.8,1-2.7,0.7l-16.8-4.6c-0.6-0.2-1.3-0.1-1.8,0.1l-9.6,4c-0.5,0.2-1,0.6-1.3,1.1L97.7,166
	c-0.5,0.8-1.4,1.3-2.4,1.3h-12c-1,0-2-0.6-2.5-1.5l-8.4-15.6c-0.3-0.6-0.8-1-1.4-1.3l-9.5-3.9c-0.6-0.2-1.2-0.3-1.8-0.1l-18.3,4.7
	c-1,0.3-2.1-0.1-2.8-0.8l-7.8-8.4c-0.7-0.7-0.9-1.7-0.7-2.6l4.6-17.7c0.2-0.6,0.1-1.2-0.1-1.8l-4-9.5c-0.2-0.6-0.7-1-1.2-1.4
	l-15.7-9.2C13,98,12.5,97,12.5,96V84c0-1,0.5-1.9,1.4-2.4l15.7-9.2c0.5-0.3,0.9-0.8,1.2-1.4l3.9-9.5c0.3-0.6,0.3-1.3,0.1-1.9
	l-5.3-17.5c-0.3-1,0-2.1,0.7-2.8l8.5-8.5c0.7-0.7,1.7-1,2.7-0.7l18.4,4.7c0.6,0.2,1.2,0.1,1.8-0.1l9.5-3.9c0.6-0.2,1.1-0.7,1.4-1.3
	l8.4-15.6c0.5-0.9,1.4-1.5,2.5-1.5h12C96.3,12.4,97.2,12.9,97.7,13.7z M117.9,90c0-15.4-12.5-27.9-27.9-27.9S62.1,74.6,62.1,90
	s12.5,27.9,27.9,27.9S117.9,105.4,117.9,90z"/>
</svg>
