<?xml version="1.0" encoding="utf-8"?>
<!-- Generator: Adobe Illustrator 24.0.2, SVG Export Plug-In . SVG Version: 6.00 Build 0)  -->
<svg version="1.1" id="background" xmlns="http://www.w3.org/2000/svg" xmlns:xlink="http://www.w3.org/1999/xlink" x="0px" y="0px"
	 viewBox="0 0 180 180" style="enable-background:new 0 0 180 180;" xml:space="preserve">
<style type="text/css">
	.st0{stroke:#FFFFFF;stroke-miterlimit:10;}
</style>
<path d="M89,22c-16,0-29,13-29,29c0,16,13,29,29,29s29-13,29-29C118,35,105,22,89,22z M66.5,45.3c-0.4,0.7-1.2,1-1.8,0.7
	s-0.7-1.2-0.3-1.9c0.4-0.7,1.2-1,1.8-0.7S66.9,44.6,66.5,45.3z M88.6,34.3c1.6,0,2.9,0.7,2.9,1.5c0,0.8-1.3,1.5-2.9,1.5
	c-1.6,0-2.9-0.7-2.9-1.5C85.7,35,87,34.3,88.6,34.3z M69.4,38.5c-0.8-0.4-1.1-1.4-0.7-2.1c0.4-0.7,1.4-0.9,2.2-0.5s1.1,1.4,0.7,2.1
	C71.2,38.7,70.2,38.9,69.4,38.5z M74.9,48.5c-0.3,0.8-1.5,1-2.7,0.5c-1.2-0.5-1.9-1.5-1.5-2.3c0.3-0.8,1.5-1,2.7-0.5
	S75.2,47.8,74.9,48.5z M75.4,30.9c0.3-0.8,1.4-1.1,2.4-0.7s1.7,1.4,1.4,2.1c-0.3,0.8-1.4,1.1-2.4,0.7C75.7,32.6,75.1,31.7,75.4,30.9
	z M77,42.2c-1.2-0.5-1.9-1.5-1.5-2.3c0.3-0.8,1.5-1,2.7-0.5c1.2,0.5,1.9,1.5,1.5,2.3C79.4,42.5,78.2,42.7,77,42.2z M84.4,51.5
	c-0.2,0.8-1.6,1.2-3.2,0.8c-1.6-0.4-2.8-1.3-2.6-2.1c0.2-0.8,1.6-1.2,3.2-0.8C83.4,49.7,84.6,50.7,84.4,51.5z M88.6,46.3
	c-1.7,0-3.2-0.7-3.2-1.5c0-0.8,1.4-1.5,3.2-1.5c1.7,0,3.2,0.7,3.2,1.5C91.8,45.7,90.3,46.3,88.6,46.3z M89,29c-1.7,0-3-0.7-3-1.5
	s1.3-1.5,3-1.5s3,0.7,3,1.5S90.7,29,89,29z M96.6,52.4c-1.6,0.4-3,0-3.2-0.8c-0.2-0.8,1-1.8,2.6-2.1c1.6-0.4,3,0,3.2,0.8
	S98.2,52.1,96.6,52.4z M99.3,42.2c-1.1,0.6-2.4,0.5-2.7-0.3c-0.4-0.7,0.2-1.8,1.4-2.4s2.4-0.5,2.7,0.3
	C101,40.5,100.4,41.6,99.3,42.2z M100.4,33c-1.1,0.4-2.1,0.1-2.4-0.7c-0.3-0.8,0.3-1.7,1.4-2.1s2.1-0.1,2.4,0.7
	C102.1,31.7,101.4,32.6,100.4,33z M105.6,49.1c-1.2,0.5-2.4,0.3-2.7-0.5c-0.3-0.8,0.4-1.8,1.5-2.3c1.2-0.5,2.4-0.3,2.7,0.5
	C107.5,47.6,106.8,48.6,105.6,49.1z M108,39.3c-1,0.5-2.1,0.3-2.4-0.4c-0.4-0.7,0.1-1.7,1.1-2.2c1-0.5,2.1-0.3,2.4,0.4
	C109.4,37.8,109,38.8,108,39.3z M113.1,46.1c-0.6,0.3-1.4,0-1.8-0.7c-0.4-0.7-0.3-1.6,0.3-1.9c0.6-0.3,1.4,0,1.8,0.7
	C113.8,44.9,113.7,45.7,113.1,46.1z"/>
<ellipse class="st0" cx="89" cy="101.4" rx="3.9" ry="2.5"/>
<ellipse cx="89" cy="105" rx="3.9" ry="2.5"/>
<path d="M89,82.1c-5.6,0-10.8-1.5-15.4-4.1c-0.4-0.2-0.9,0.1-0.9,0.5v76.8c0,6.9,5.7,12.6,12.6,12.6h6.4c6.9,0,12.6-5.7,12.6-12.6
	V79.1c0-0.5-0.5-0.8-0.9-0.5C99.1,80.8,94.2,82.1,89,82.1z"/>
</svg>
