<?xml version="1.0" encoding="utf-8"?>
<!-- Generator: Adobe Illustrator 24.0.2, SVG Export Plug-In . SVG Version: 6.00 Build 0)  -->
<svg version="1.1" id="background" xmlns="http://www.w3.org/2000/svg" xmlns:xlink="http://www.w3.org/1999/xlink" x="0px" y="0px"
	 viewBox="0 0 684 131" style="enable-background:new 0 0 684 131;" xml:space="preserve">
<style type="text/css">
	.st0{fill:#1A1A1A;}
	.st1{fill:#0071BC;}
	.st2{fill:#FFFFFF;stroke:#FFFFFF;stroke-width:4;stroke-linecap:round;stroke-linejoin:round;stroke-miterlimit:10;}
	.st3{fill:#0071BC;stroke:#0071BC;stroke-width:4;stroke-linecap:round;stroke-linejoin:round;stroke-miterlimit:10;}
	.st4{fill:#FFFFFF;}
</style>
<path class="st0" d="M134.3,31.1L69.5,0L4.7,31.1l64.8,31.1L134.3,31.1z"/>
<path class="st1" d="M74.2,131L139,99.9V37.8L74.2,68.9V131z"/>
<path class="st1" d="M0,37.8v62.1L64.8,131V68.9L0,37.8z"/>
<path class="st2" d="M116,31.1L69.5,8.8L23,31.1l46.5,22.3L116,31.1z"/>
<path class="st3" d="M98.8,31.1L69.5,17L40.2,31.1l29.3,14.1L98.8,31.1z"/>
<g>
	<path d="M185.1,27.5h33.8c6.2,0,11.2,1.4,15,4.3s5.6,7.2,5.6,12.9c0,3.5-0.9,6.5-2.6,9c-1.7,2.5-4.2,4.4-7.3,5.8v0.2
		c4.3,0.9,7.5,2.9,9.7,6.1c2.2,3.1,3.3,7.1,3.3,11.8c0,2.7-0.5,5.3-1.5,7.6c-1,2.4-2.5,4.4-4.6,6.1s-4.7,3.1-8,4.1
		c-3.2,1-7.1,1.5-11.6,1.5H185V27.5H185.1z M197.3,56.6h19.9c2.9,0,5.4-0.8,7.3-2.5s2.9-4,2.9-7.2c0-3.5-0.9-6-2.6-7.4
		c-1.8-1.4-4.3-2.1-7.6-2.1h-19.9L197.3,56.6L197.3,56.6z M197.3,87h21.5c3.7,0,6.6-1,8.6-2.9s3.1-4.6,3.1-8.1c0-3.4-1-6.1-3.1-7.9
		c-2-1.8-4.9-2.8-8.6-2.8h-21.5V87z"/>
	<path d="M275.1,98.3c-4,0-7.6-0.7-10.8-2c-3.1-1.3-5.8-3.2-8-5.5c-2.2-2.3-3.8-5.1-5-8.4c-1.1-3.2-1.7-6.8-1.7-10.7
		c0-3.8,0.6-7.4,1.7-10.6c1.1-3.2,2.8-6,5-8.4c2.2-2.3,4.8-4.2,8-5.5c3.1-1.3,6.7-2,10.8-2c4,0,7.6,0.7,10.8,2
		c3.1,1.3,5.8,3.2,8,5.5s3.8,5.1,5,8.4c1.1,3.2,1.7,6.8,1.7,10.6c0,3.9-0.6,7.5-1.7,10.7s-2.8,6-5,8.4c-2.2,2.3-4.8,4.2-8,5.5
		C282.7,97.7,279.2,98.3,275.1,98.3z M275.1,89.6c2.5,0,4.6-0.5,6.4-1.6c1.8-1,3.3-2.4,4.5-4.1s2-3.6,2.6-5.7s0.8-4.3,0.8-6.5
		c0-2.1-0.3-4.3-0.8-6.4c-0.6-2.1-1.4-4-2.6-5.7s-2.7-3-4.5-4s-4-1.6-6.4-1.6c-2.5,0-4.6,0.5-6.4,1.6c-1.8,1-3.3,2.4-4.5,4
		c-1.2,1.7-2,3.6-2.6,5.7c-0.6,2.1-0.8,4.3-0.8,6.4c0,2.2,0.3,4.4,0.8,6.5c0.6,2.1,1.4,4,2.6,5.7s2.7,3.1,4.5,4.1
		S272.7,89.6,275.1,89.6z"/>
	<path class="st1" d="M323.3,70.5l-17.4-23.8h13.4l10.5,15.5l11-15.5h12.8L336.5,70l19.3,27h-13.3l-12.8-18.6L317.4,97h-13
		L323.3,70.5z"/>
	<path class="st1" d="M363.6,27.5h28.8c5.3,0,9.9,0.9,13.8,2.7c3.9,1.8,7.1,4.3,9.5,7.4c2.5,3.1,4.3,6.8,5.5,11s1.8,8.7,1.8,13.5
		s-0.6,9.3-1.8,13.5c-1.2,4.2-3,7.9-5.5,11s-5.6,5.6-9.5,7.4s-8.5,2.7-13.8,2.7h-28.8V27.5z M375.8,87h12c4.7,0,8.6-0.6,11.6-1.9
		s5.4-3,7.1-5.3c1.7-2.2,2.9-4.9,3.5-7.9s0.9-6.3,0.9-9.8c0-3.5-0.3-6.8-0.9-9.8s-1.8-5.6-3.5-7.9c-1.7-2.2-4.1-4-7.1-5.3
		s-6.9-1.9-11.6-1.9h-12V87z"/>
	<path d="M470.4,29.9h11V93h-11V29.9z"/>
	<path d="M524.4,62.6c-0.4-2.8-1.5-5-3.4-6.4s-4.2-2.2-7-2.2c-1.3,0-2.7,0.2-4.2,0.7c-1.5,0.4-2.8,1.3-4.1,2.5
		c-1.2,1.2-2.3,2.9-3.1,5c-0.8,2.2-1.2,5-1.2,8.4c0,1.9,0.2,3.8,0.7,5.7c0.4,1.9,1.1,3.6,2.1,5c1,1.5,2.2,2.7,3.8,3.6
		c1.5,0.9,3.4,1.4,5.6,1.4c2.9,0,5.4-0.9,7.3-2.7c1.9-1.8,3.1-4.4,3.6-7.7h10.1c-0.9,6-3.2,10.5-6.8,13.7s-8.3,4.7-14.2,4.7
		c-3.6,0-6.8-0.6-9.5-1.8c-2.7-1.2-5.1-2.9-6.9-4.9c-1.9-2.1-3.3-4.6-4.3-7.5s-1.5-6-1.5-9.4s0.5-6.6,1.4-9.6s2.4-5.6,4.2-7.8
		c1.9-2.2,4.2-3.9,7-5.2s6.1-1.9,9.9-1.9c2.7,0,5.2,0.3,7.6,1c2.4,0.7,4.5,1.7,6.4,3c1.9,1.4,3.4,3.1,4.6,5.1
		c1.2,2.1,1.9,4.5,2.1,7.3L524.4,62.6L524.4,62.6z"/>
	<path d="M563.7,94.3c-3.7,0-6.9-0.6-9.8-1.8c-2.9-1.2-5.3-2.9-7.2-5s-3.5-4.7-4.5-7.6s-1.5-6.2-1.5-9.7s0.5-6.7,1.5-9.6
		c1-2.9,2.5-5.5,4.5-7.6s4.4-3.8,7.2-5c2.9-1.2,6.1-1.8,9.8-1.8s6.9,0.6,9.8,1.8c2.9,1.2,5.3,2.9,7.2,5c2,2.1,3.5,4.7,4.5,7.6
		c1,2.9,1.5,6.2,1.5,9.6c0,3.5-0.5,6.8-1.5,9.7c-1,2.9-2.5,5.5-4.5,7.6s-4.4,3.8-7.2,5C570.6,93.6,567.3,94.3,563.7,94.3z
		 M563.7,86.3c2.2,0,4.2-0.5,5.8-1.4s3-2.2,4.1-3.7s1.8-3.3,2.3-5.2c0.5-1.9,0.8-3.9,0.8-5.9c0-1.9-0.3-3.9-0.8-5.8
		s-1.3-3.7-2.3-5.2c-1.1-1.5-2.4-2.7-4.1-3.7c-1.7-0.9-3.6-1.4-5.8-1.4s-4.2,0.5-5.8,1.4c-1.7,0.9-3,2.2-4.1,3.7s-1.8,3.2-2.3,5.2
		c-0.5,1.9-0.7,3.9-0.7,5.8c0,2,0.2,4,0.7,5.9s1.3,3.6,2.3,5.2c1.1,1.5,2.4,2.8,4.1,3.7C559.5,85.8,561.4,86.3,563.7,86.3z"/>
	<path d="M595.1,47.3h9.5V54l0.2,0.2c1.5-2.5,3.5-4.5,6-6c2.5-1.4,5.2-2.2,8.2-2.2c5,0,9,1.3,11.8,3.9c2.9,2.6,4.3,6.5,4.3,11.7V93
		H625V64.3c-0.1-3.6-0.9-6.2-2.3-7.8c-1.4-1.6-3.6-2.4-6.6-2.4c-1.7,0-3.2,0.3-4.6,0.9c-1.4,0.6-2.5,1.5-3.4,2.6s-1.7,2.4-2.2,3.8
		c-0.5,1.5-0.8,3-0.8,4.7V93H595L595.1,47.3L595.1,47.3z"/>
	<path d="M653.4,78.3c0.3,2.9,1.4,5,3.4,6.2c1.9,1.2,4.3,1.8,7,1.8c0.9,0,2-0.1,3.2-0.2s2.3-0.4,3.4-0.8c1.1-0.4,1.9-1,2.6-1.8
		c0.7-0.8,1-1.8,0.9-3.1c-0.1-1.3-0.5-2.4-1.4-3.2c-0.9-0.8-2-1.5-3.4-2s-3-0.9-4.7-1.3c-1.8-0.4-3.6-0.7-5.4-1.1
		c-1.9-0.4-3.7-0.9-5.4-1.5s-3.3-1.4-4.7-2.4s-2.5-2.3-3.3-3.8c-0.8-1.6-1.2-3.5-1.2-5.8c0-2.5,0.6-4.6,1.8-6.2
		c1.2-1.7,2.7-3,4.6-4.1c1.9-1,3.9-1.8,6.2-2.2s4.4-0.6,6.5-0.6c2.4,0,4.6,0.3,6.8,0.8c2.1,0.5,4.1,1.3,5.8,2.4
		c1.7,1.1,3.2,2.6,4.3,4.4c1.1,1.8,1.9,4,2.2,6.5H672c-0.5-2.4-1.6-4-3.3-4.9c-1.7-0.8-3.7-1.2-6-1.2c-0.7,0-1.5,0.1-2.5,0.2
		c-1,0.1-1.9,0.3-2.7,0.7c-0.9,0.3-1.6,0.8-2.2,1.4c-0.6,0.6-0.9,1.4-0.9,2.4c0,1.2,0.4,2.2,1.3,3c0.9,0.8,2,1.4,3.4,1.9
		c1.4,0.5,3,0.9,4.7,1.3c1.8,0.4,3.6,0.7,5.5,1.1c1.8,0.4,3.6,0.9,5.4,1.5c1.8,0.6,3.3,1.4,4.7,2.4s2.5,2.3,3.4,3.8s1.3,3.4,1.3,5.7
		c0,2.7-0.6,5-1.9,6.9c-1.2,1.9-2.8,3.4-4.8,4.6s-4.2,2-6.6,2.6c-2.4,0.5-4.8,0.8-7.2,0.8c-2.9,0-5.6-0.3-8-1
		c-2.4-0.6-4.6-1.6-6.4-3c-1.8-1.3-3.2-3-4.2-4.9c-1-2-1.6-4.3-1.6-7h10V78.3z"/>
</g>
<path d="M375.8,87h12c4.7,0,8.6-0.6,11.6-1.9s5.4-3,7.1-5.3c1.7-2.2,2.9-4.9,3.5-7.9s0.9-6.3,0.9-9.8c0-3.5-0.3-6.8-0.9-9.8
	s-1.8-5.6-3.5-7.9c-1.7-2.2-4.1-4-7.1-5.3s-6.9-1.9-11.6-1.9h-12V87z"/>
<path class="st4" d="M375.8,79.4h5.2c2.1,0,3.7-0.4,5-1.3s2.3-2.1,3.1-3.7c0.7-1.6,1.3-3.4,1.5-5.5c0.3-2.1,0.4-4.4,0.4-6.9
	s-0.1-4.7-0.4-6.9c-0.3-2.1-0.8-4-1.5-5.5c-0.7-1.6-1.8-2.8-3.1-3.7c-1.3-0.9-3-1.3-5-1.3h-5.2V79.4z"/>
</svg>
